<?xml version="1.0" encoding="UTF-8"?>
<svg width="500" height="400" viewBox="0 0 500 400" fill="none" xmlns="http://www.w3.org/2000/svg">
  <!-- Background gradient -->
  <rect width="500" height="400" rx="20" fill="url(#paint0_linear)" />
  
  <!-- Abstract shapes -->
  <circle cx="150" cy="200" r="80" fill="#8B5CF6" fill-opacity="0.2" />
  <circle cx="350" cy="150" r="60" fill="#8B5CF6" fill-opacity="0.3" />
  <circle cx="250" cy="300" r="70" fill="#8B5CF6" fill-opacity="0.2" />
  
  <!-- Decorative elements -->
  <path d="M100 100L150 150L100 200L150 250L100 300" stroke="#8B5CF6" stroke-width="8" stroke-linecap="round" stroke-linejoin="round" />
  <path d="M400 100L350 150L400 200L350 250L400 300" stroke="#8B5CF6" stroke-width="8" stroke-linecap="round" stroke-linejoin="round" />
  
  <!-- Central icon -->
  <rect x="220" y="170" width="60" height="60" rx="10" fill="#8B5CF6" />
  <path d="M235 200H265" stroke="white" stroke-width="4" stroke-linecap="round" />
  <path d="M250 185V215" stroke="white" stroke-width="4" stroke-linecap="round" />
  
  <!-- Small decorative dots -->
  <circle cx="150" cy="100" r="5" fill="#8B5CF6" />
  <circle cx="350" cy="300" r="5" fill="#8B5CF6" />
  <circle cx="400" cy="150" r="5" fill="#8B5CF6" />
  <circle cx="100" cy="250" r="5" fill="#8B5CF6" />
  
  <!-- Gradient definition -->
  <defs>
    <linearGradient id="paint0_linear" x1="0" y1="0" x2="500" y2="400" gradientUnits="userSpaceOnUse">
      <stop stop-color="#F5F3FF" />
      <stop offset="1" stop-color="#E0E7FF" />
    </linearGradient>
  </defs>
</svg>
